<?xml version="1.0" encoding="UTF-8" standalone="no"?>
<!DOCTYPE svg PUBLIC "-//W3C//DTD SVG 1.1//EN" "http://www.w3.org/Graphics/SVG/1.1/DTD/svg11.dtd">
<svg xmlns="http://www.w3.org/2000/svg" xmlns:xl="http://www.w3.org/1999/xlink" version="1.1" viewBox="435 498 500 500" width="500pt" height="500pt" xmlns:dc="http://purl.org/dc/elements/1.1/">
  <metadata> Produced by OmniGraffle 7.4 
    <dc:date>2017-07-30 03:50:31 +0000</dc:date>
  </metadata>
  <defs/>
  <g stroke="none" stroke-opacity="1" stroke-dasharray="none" fill="none" fill-opacity="1">
    <title>relatorios</title>
    <rect fill="white" width="501" height="501"/>
    <g>
      <title>Layer 1</title>
      <rect x="454" y="515" width="225" height="326" fill="white"/>
      <rect x="454" y="515" width="225" height="326" stroke="black" stroke-linecap="round" stroke-linejoin="round" stroke-width="5"/>
      <rect x="475" y="701.4" width="183" height="4" fill="black"/>
      <rect x="475" y="701.4" width="183" height="4" stroke="black" stroke-linecap="round" stroke-linejoin="round" stroke-width="1"/>
      <rect x="475" y="594" width="183" height="4" fill="black"/>
      <rect x="475" y="594" width="183" height="4" stroke="black" stroke-linecap="round" stroke-linejoin="round" stroke-width="1"/>
      <rect x="475" y="629.8" width="183" height="4" fill="black"/>
      <rect x="475" y="629.8" width="183" height="4" stroke="black" stroke-linecap="round" stroke-linejoin="round" stroke-width="1"/>
      <rect x="475" y="665.6" width="183" height="4" fill="black"/>
      <rect x="475" y="665.6" width="183" height="4" stroke="black" stroke-linecap="round" stroke-linejoin="round" stroke-width="1"/>
      <rect x="475" y="773" width="183" height="4" fill="black"/>
      <rect x="475" y="773" width="183" height="4" stroke="black" stroke-linecap="round" stroke-linejoin="round" stroke-width="1"/>
      <rect x="475" y="737.2" width="183" height="4" fill="black"/>
      <rect x="475" y="737.2" width="183" height="4" stroke="black" stroke-linecap="round" stroke-linejoin="round" stroke-width="1"/>
      <rect x="512" y="808.8" width="146" height="4" fill="black"/>
      <rect x="512" y="808.8" width="146" height="4" stroke="black" stroke-linecap="round" stroke-linejoin="round" stroke-width="1"/>
      <rect x="518" y="543" width="140" height="13" fill="black"/>
      <rect x="518" y="543" width="140" height="13" stroke="black" stroke-linecap="round" stroke-linejoin="round" stroke-width="1"/>
      <rect x="475" y="543" width="30" height="31" fill="black"/>
      <rect x="475" y="543" width="30" height="31" stroke="black" stroke-linecap="round" stroke-linejoin="round" stroke-width="1"/>
      <rect x="627" y="580" width="284" height="326" fill="white"/>
      <rect x="627" y="580" width="284" height="326" stroke="black" stroke-linecap="round" stroke-linejoin="round" stroke-width="5"/>
      <rect x="653.5067" y="766.4" width="230.98667" height="4" fill="black"/>
      <rect x="653.5067" y="766.4" width="230.98667" height="4" stroke="black" stroke-linecap="round" stroke-linejoin="round" stroke-width="1"/>
      <rect x="653.5067" y="659" width="230.98667" height="4" fill="black"/>
      <rect x="653.5067" y="659" width="230.98667" height="4" stroke="black" stroke-linecap="round" stroke-linejoin="round" stroke-width="1"/>
      <rect x="653.5067" y="694.8" width="230.98667" height="4" fill="black"/>
      <rect x="653.5067" y="694.8" width="230.98667" height="4" stroke="black" stroke-linecap="round" stroke-linejoin="round" stroke-width="1"/>
      <rect x="653.5067" y="730.6" width="230.98667" height="4" fill="black"/>
      <rect x="653.5067" y="730.6" width="230.98667" height="4" stroke="black" stroke-linecap="round" stroke-linejoin="round" stroke-width="1"/>
      <rect x="653.5067" y="838" width="230.98667" height="4" fill="black"/>
      <rect x="653.5067" y="838" width="230.98667" height="4" stroke="black" stroke-linecap="round" stroke-linejoin="round" stroke-width="1"/>
      <rect x="653.5067" y="802.2" width="230.98667" height="4" fill="black"/>
      <rect x="653.5067" y="802.2" width="230.98667" height="4" stroke="black" stroke-linecap="round" stroke-linejoin="round" stroke-width="1"/>
      <rect x="700.2089" y="873.8" width="184.28444" height="4" fill="black"/>
      <rect x="700.2089" y="873.8" width="184.28444" height="4" stroke="black" stroke-linecap="round" stroke-linejoin="round" stroke-width="1"/>
      <rect x="707.7822" y="608" width="176.71111" height="13" fill="black"/>
      <rect x="707.7822" y="608" width="176.71111" height="13" stroke="black" stroke-linecap="round" stroke-linejoin="round" stroke-width="1"/>
      <rect x="653.5067" y="608" width="37.866667" height="31" fill="black"/>
      <rect x="653.5067" y="608" width="37.866667" height="31" stroke="black" stroke-linecap="round" stroke-linejoin="round" stroke-width="1"/>
      <rect x="545" y="681" width="225" height="293" fill="white"/>
      <rect x="545" y="681" width="225" height="293" stroke="black" stroke-linecap="round" stroke-linejoin="round" stroke-width="5"/>
      <rect x="566" y="848.5313" width="183" height="3.595092" fill="black"/>
      <rect x="566" y="848.5313" width="183" height="3.595092" stroke="black" stroke-linecap="round" stroke-linejoin="round" stroke-width="1"/>
      <rect x="566" y="752.0031" width="183" height="3.595092" fill="black"/>
      <rect x="566" y="752.0031" width="183" height="3.595092" stroke="black" stroke-linecap="round" stroke-linejoin="round" stroke-width="1"/>
      <rect x="566" y="784.1791" width="183" height="3.595092" fill="black"/>
      <rect x="566" y="784.1791" width="183" height="3.595092" stroke="black" stroke-linecap="round" stroke-linejoin="round" stroke-width="1"/>
      <rect x="566" y="816.3552" width="183" height="3.595092" fill="black"/>
      <rect x="566" y="816.3552" width="183" height="3.595092" stroke="black" stroke-linecap="round" stroke-linejoin="round" stroke-width="1"/>
      <rect x="566" y="912.8834" width="183" height="3.595092" fill="black"/>
      <rect x="566" y="912.8834" width="183" height="3.595092" stroke="black" stroke-linecap="round" stroke-linejoin="round" stroke-width="1"/>
      <rect x="566" y="880.7074" width="183" height="3.595092" fill="black"/>
      <rect x="566" y="880.7074" width="183" height="3.595092" stroke="black" stroke-linecap="round" stroke-linejoin="round" stroke-width="1"/>
      <rect x="603" y="945.0595" width="146" height="3.595092" fill="black"/>
      <rect x="603" y="945.0595" width="146" height="3.595092" stroke="black" stroke-linecap="round" stroke-linejoin="round" stroke-width="1"/>
      <rect x="609" y="706.16564" width="140" height="11.684049" fill="black"/>
      <rect x="609" y="706.16564" width="140" height="11.684049" stroke="black" stroke-linecap="round" stroke-linejoin="round" stroke-width="1"/>
      <rect x="566" y="706.16564" width="30" height="27.861963" fill="black"/>
      <rect x="566" y="706.16564" width="30" height="27.861963" stroke="black" stroke-linecap="round" stroke-linejoin="round" stroke-width="1"/>
    </g>
  </g>
</svg>
