<?xml version="1.0" encoding="UTF-8" standalone="no"?>
<!DOCTYPE svg PUBLIC "-//W3C//DTD SVG 1.1//EN" "http://www.w3.org/Graphics/SVG/1.1/DTD/svg11.dtd">
<svg xmlns="http://www.w3.org/2000/svg" xmlns:xl="http://www.w3.org/1999/xlink" version="1.1" viewBox="-2 159 500 500" width="500pt" height="500pt" xmlns:dc="http://purl.org/dc/elements/1.1/">
  <metadata> Produced by OmniGraffle 7.4 
    <dc:date>2017-07-30 03:17:14 +0000</dc:date>
  </metadata>
  <defs/>
  <g stroke="none" stroke-opacity="1" stroke-dasharray="none" fill="none" fill-opacity="1">
    <title>Tabelas</title>
    <rect fill="white" width="501" height="501"/>
    <g>
      <title>Layer 1</title>
      <rect x="36" y="197.5" width="273" height="121" fill="white"/>
      <rect x="36" y="197.5" width="273" height="121" stroke="black" stroke-linecap="round" stroke-linejoin="round" stroke-width="6"/>
      <rect x="51.5" y="237.16667" width="15" height="15" fill="white"/>
      <rect x="51.5" y="237.16667" width="15" height="15" stroke="black" stroke-linecap="round" stroke-linejoin="round" stroke-width="1"/>
      <rect x="78" y="237.16667" width="137.5" height="15" fill="black"/>
      <rect x="78" y="237.16667" width="137.5" height="15" stroke="black" stroke-linecap="round" stroke-linejoin="round" stroke-width="1"/>
      <rect x="247" y="235.66667" width="46.5" height="15" fill="black"/>
      <rect x="247" y="235.66667" width="46.5" height="15" stroke="black" stroke-linecap="round" stroke-linejoin="round" stroke-width="1"/>
      <rect x="51.5" y="265.33333" width="15" height="15" fill="white"/>
      <rect x="51.5" y="265.33333" width="15" height="15" stroke="black" stroke-linecap="round" stroke-linejoin="round" stroke-width="1"/>
      <rect x="78" y="265.33333" width="156" height="15" fill="black"/>
      <rect x="78" y="265.33333" width="156" height="15" stroke="black" stroke-linecap="round" stroke-linejoin="round" stroke-width="1"/>
      <rect x="255" y="265.33333" width="38.5" height="15" fill="black"/>
      <rect x="255" y="265.33333" width="38.5" height="15" stroke="black" stroke-linecap="round" stroke-linejoin="round" stroke-width="1"/>
      <rect x="51.5" y="293.5" width="15" height="15" fill="white"/>
      <rect x="51.5" y="293.5" width="15" height="15" stroke="black" stroke-linecap="round" stroke-linejoin="round" stroke-width="1"/>
      <rect x="78" y="293.5" width="128" height="15" fill="black"/>
      <rect x="78" y="293.5" width="128" height="15" stroke="black" stroke-linecap="round" stroke-linejoin="round" stroke-width="1"/>
      <rect x="255" y="293.5" width="38.5" height="15" fill="black"/>
      <rect x="255" y="293.5" width="38.5" height="15" stroke="black" stroke-linecap="round" stroke-linejoin="round" stroke-width="1"/>
      <rect x="51.5" y="207.5" width="15" height="15" fill="black"/>
      <rect x="51.5" y="207.5" width="15" height="15" stroke="black" stroke-linecap="round" stroke-linejoin="round" stroke-width="1"/>
      <rect x="78" y="207.5" width="137.5" height="15" fill="black"/>
      <rect x="78" y="207.5" width="137.5" height="15" stroke="black" stroke-linecap="round" stroke-linejoin="round" stroke-width="1"/>
      <rect x="247" y="207.5" width="46.5" height="15" fill="black"/>
      <rect x="247" y="207.5" width="46.5" height="15" stroke="black" stroke-linecap="round" stroke-linejoin="round" stroke-width="1"/>
      <rect x="198" y="348.5" width="273" height="121" fill="white"/>
      <rect x="198" y="348.5" width="273" height="121" stroke="black" stroke-linecap="round" stroke-linejoin="round" stroke-width="6"/>
      <rect x="213.5" y="388.16667" width="15" height="15" fill="white"/>
      <rect x="213.5" y="388.16667" width="15" height="15" stroke="black" stroke-linecap="round" stroke-linejoin="round" stroke-width="1"/>
      <rect x="240" y="388.16667" width="137.5" height="15" fill="black"/>
      <rect x="240" y="388.16667" width="137.5" height="15" stroke="black" stroke-linecap="round" stroke-linejoin="round" stroke-width="1"/>
      <rect x="409" y="386.66667" width="46.5" height="15" fill="black"/>
      <rect x="409" y="386.66667" width="46.5" height="15" stroke="black" stroke-linecap="round" stroke-linejoin="round" stroke-width="1"/>
      <rect x="213.5" y="416.33333" width="15" height="15" fill="white"/>
      <rect x="213.5" y="416.33333" width="15" height="15" stroke="black" stroke-linecap="round" stroke-linejoin="round" stroke-width="1"/>
      <rect x="240" y="416.33333" width="156" height="15" fill="black"/>
      <rect x="240" y="416.33333" width="156" height="15" stroke="black" stroke-linecap="round" stroke-linejoin="round" stroke-width="1"/>
      <rect x="417" y="416.33333" width="38.5" height="15" fill="black"/>
      <rect x="417" y="416.33333" width="38.5" height="15" stroke="black" stroke-linecap="round" stroke-linejoin="round" stroke-width="1"/>
      <rect x="213.5" y="444.5" width="15" height="15" fill="white"/>
      <rect x="213.5" y="444.5" width="15" height="15" stroke="black" stroke-linecap="round" stroke-linejoin="round" stroke-width="1"/>
      <rect x="240" y="444.5" width="128" height="15" fill="black"/>
      <rect x="240" y="444.5" width="128" height="15" stroke="black" stroke-linecap="round" stroke-linejoin="round" stroke-width="1"/>
      <rect x="417" y="444.5" width="38.5" height="15" fill="black"/>
      <rect x="417" y="444.5" width="38.5" height="15" stroke="black" stroke-linecap="round" stroke-linejoin="round" stroke-width="1"/>
      <rect x="213.5" y="358.5" width="15" height="15" fill="black"/>
      <rect x="213.5" y="358.5" width="15" height="15" stroke="black" stroke-linecap="round" stroke-linejoin="round" stroke-width="1"/>
      <rect x="240" y="358.5" width="137.5" height="15" fill="black"/>
      <rect x="240" y="358.5" width="137.5" height="15" stroke="black" stroke-linecap="round" stroke-linejoin="round" stroke-width="1"/>
      <rect x="409" y="358.5" width="46.5" height="15" fill="black"/>
      <rect x="409" y="358.5" width="46.5" height="15" stroke="black" stroke-linecap="round" stroke-linejoin="round" stroke-width="1"/>
      <rect x="36" y="494.5" width="273" height="121" fill="white"/>
      <rect x="36" y="494.5" width="273" height="121" stroke="black" stroke-linecap="round" stroke-linejoin="round" stroke-width="6"/>
      <rect x="51.5" y="534.16667" width="15" height="15" fill="white"/>
      <rect x="51.5" y="534.16667" width="15" height="15" stroke="black" stroke-linecap="round" stroke-linejoin="round" stroke-width="1"/>
      <rect x="78" y="534.16667" width="137.5" height="15" fill="black"/>
      <rect x="78" y="534.16667" width="137.5" height="15" stroke="black" stroke-linecap="round" stroke-linejoin="round" stroke-width="1"/>
      <rect x="247" y="532.66667" width="46.5" height="15" fill="black"/>
      <rect x="247" y="532.66667" width="46.5" height="15" stroke="black" stroke-linecap="round" stroke-linejoin="round" stroke-width="1"/>
      <rect x="51.5" y="562.3333" width="15" height="15" fill="white"/>
      <rect x="51.5" y="562.3333" width="15" height="15" stroke="black" stroke-linecap="round" stroke-linejoin="round" stroke-width="1"/>
      <rect x="78" y="562.3333" width="156" height="15" fill="black"/>
      <rect x="78" y="562.3333" width="156" height="15" stroke="black" stroke-linecap="round" stroke-linejoin="round" stroke-width="1"/>
      <rect x="255" y="562.3333" width="38.5" height="15" fill="black"/>
      <rect x="255" y="562.3333" width="38.5" height="15" stroke="black" stroke-linecap="round" stroke-linejoin="round" stroke-width="1"/>
      <rect x="51.5" y="590.5" width="15" height="15" fill="white"/>
      <rect x="51.5" y="590.5" width="15" height="15" stroke="black" stroke-linecap="round" stroke-linejoin="round" stroke-width="1"/>
      <rect x="78" y="590.5" width="128" height="15" fill="black"/>
      <rect x="78" y="590.5" width="128" height="15" stroke="black" stroke-linecap="round" stroke-linejoin="round" stroke-width="1"/>
      <rect x="255" y="590.5" width="38.5" height="15" fill="black"/>
      <rect x="255" y="590.5" width="38.5" height="15" stroke="black" stroke-linecap="round" stroke-linejoin="round" stroke-width="1"/>
      <rect x="51.5" y="504.5" width="15" height="15" fill="black"/>
      <rect x="51.5" y="504.5" width="15" height="15" stroke="black" stroke-linecap="round" stroke-linejoin="round" stroke-width="1"/>
      <rect x="78" y="504.5" width="137.5" height="15" fill="black"/>
      <rect x="78" y="504.5" width="137.5" height="15" stroke="black" stroke-linecap="round" stroke-linejoin="round" stroke-width="1"/>
      <rect x="247" y="504.5" width="46.5" height="15" fill="black"/>
      <rect x="247" y="504.5" width="46.5" height="15" stroke="black" stroke-linecap="round" stroke-linejoin="round" stroke-width="1"/>
    </g>
  </g>
</svg>
