<?xml version="1.0" encoding="UTF-8" standalone="no"?>
<!DOCTYPE svg PUBLIC "-//W3C//DTD SVG 1.1//EN" "http://www.w3.org/Graphics/SVG/1.1/DTD/svg11.dtd">
<svg xmlns="http://www.w3.org/2000/svg" xmlns:xl="http://www.w3.org/1999/xlink" version="1.1" viewBox="316 272.5 338 272.5" width="338pt" height="272.5pt" xmlns:dc="http://purl.org/dc/elements/1.1/">
  <metadata> Produced by OmniGraffle 7.4 
    <dc:date>2017-07-30 01:55:18 +0000</dc:date>
  </metadata>
  <defs/>
  <g stroke="none" stroke-opacity="1" stroke-dasharray="none" fill="none" fill-opacity="1">
    <title>Icons</title>
    <rect fill="white" width="339" height="273.5"/>
    <g>
      <title>Layer 1</title>
      <rect x="405.5577" y="313.25" width="181.97041" height="17.522936" fill="black"/>
      <rect x="405.5577" y="313.25" width="181.97041" height="17.522936" stroke="black" stroke-linecap="round" stroke-linejoin="round" stroke-width="1"/>
      <rect x="405.5577" y="347.9454" width="164.99556" height="17.522936" fill="black"/>
      <rect x="405.5577" y="347.9454" width="164.99556" height="17.522936" stroke="black" stroke-linecap="round" stroke-linejoin="round" stroke-width="1"/>
      <rect x="405.5577" y="382.64083" width="194.1923" height="17.522936" fill="black"/>
      <rect x="405.5577" y="382.64083" width="194.1923" height="17.522936" stroke="black" stroke-linecap="round" stroke-linejoin="round" stroke-width="1"/>
      <rect x="405.5577" y="417.33624" width="181.97041" height="17.522936" fill="black"/>
      <rect x="405.5577" y="417.33624" width="181.97041" height="17.522936" stroke="black" stroke-linecap="round" stroke-linejoin="round" stroke-width="1"/>
      <rect x="370.25" y="313.25" width="18.33284" height="17.522936" fill="black"/>
      <rect x="370.25" y="313.25" width="18.33284" height="17.522936" stroke="black" stroke-linecap="round" stroke-linejoin="round" stroke-width="1"/>
      <rect x="370.25" y="347.9454" width="18.33284" height="17.522936" fill="black"/>
      <rect x="370.25" y="347.9454" width="18.33284" height="17.522936" stroke="black" stroke-linecap="round" stroke-linejoin="round" stroke-width="1"/>
      <rect x="370.25" y="382.64083" width="18.33284" height="17.522936" fill="black"/>
      <rect x="370.25" y="382.64083" width="18.33284" height="17.522936" stroke="black" stroke-linecap="round" stroke-linejoin="round" stroke-width="1"/>
      <rect x="370.25" y="417.33624" width="18.33284" height="17.522936" fill="black"/>
      <rect x="370.25" y="417.33624" width="18.33284" height="17.522936" stroke="black" stroke-linecap="round" stroke-linejoin="round" stroke-width="1"/>
      <rect x="405.5577" y="452.03165" width="158.88462" height="17.522936" fill="black"/>
      <rect x="405.5577" y="452.03165" width="158.88462" height="17.522936" stroke="black" stroke-linecap="round" stroke-linejoin="round" stroke-width="1"/>
      <rect x="370.25" y="452.03165" width="18.33284" height="17.522936" fill="black"/>
      <rect x="370.25" y="452.03165" width="18.33284" height="17.522936" stroke="black" stroke-linecap="round" stroke-linejoin="round" stroke-width="1"/>
      <rect x="405.5577" y="486.72706" width="181.97041" height="17.522936" fill="black"/>
      <rect x="405.5577" y="486.72706" width="181.97041" height="17.522936" stroke="black" stroke-linecap="round" stroke-linejoin="round" stroke-width="1"/>
      <rect x="370.25" y="486.72706" width="18.33284" height="17.522936" fill="black"/>
      <rect x="370.25" y="486.72706" width="18.33284" height="17.522936" stroke="black" stroke-linecap="round" stroke-linejoin="round" stroke-width="1"/>
    </g>
  </g>
</svg>
